
        <svg xmlns="http://www.w3.org/2000/svg" xmlns:xlink="http://www.w3.org/1999/xlink" version="1.1" width="3214.285714285714" height="2062.8774161107244" viewBox="0 0 3214.285714285714 2062.8774161107244">
			
			<g transform="scale(10.714285714285714) translate(10, 10)">
				<defs id="SvgjsDefs1840"/><g id="SvgjsG1841" featureKey="nameFeature-0" transform="matrix(6.161971499914706,0,0,6.161971499914706,-17.746463933651135,-73.94365799897648)" fill="#000"><path d="M17.72 12 c2.76 0 5.04 2.24 5.04 5 l0 10.52 c0 2.76 -2.28 4.96 -5.04 4.96 l-8.44 0 l0 7.52 l-6.4 0 l0 -28 l14.84 0 z M16.28 26.08 l0 -7.64 l-7 0 l0 7.64 l7 0 z M43.32 12 c2.76 0 5 2.24 5 5 l0 5.28 c0 1.84 -1.32 3.4 -3.16 3.68 l-0.24 0.04 l0.24 0.04 c1.84 0.32 3.16 1.88 3.16 3.68 l0 5.32 c0 2.72 -2.24 4.96 -5 4.96 l-14.8 0 l0 -28 l14.8 0 z M41.92 32.28 l0 -1.72 c0 -0.76 -0.6 -1.32 -1.32 -1.32 l-5.68 0 l0 4.36 l5.68 0 c0.72 0 1.32 -0.6 1.32 -1.32 z M41.92 21.48 l0 -1.72 c0 -0.72 -0.6 -1.32 -1.32 -1.32 l-5.68 0 l0 4.36 l5.68 0 c0.72 0 1.32 -0.6 1.32 -1.32 z"/></g>
			</g>
		</svg>
	